<?xml version="1.0" encoding="utf-8"?>
<!-- Generator: Adobe Illustrator 27.0.0, SVG Export Plug-In . SVG Version: 6.00 Build 0)  -->
<svg version="1.1" xmlns="http://www.w3.org/2000/svg" xmlns:xlink="http://www.w3.org/1999/xlink" x="0px" y="0px"
	 viewBox="0 0 841.9 1190.6" style="enable-background:new 0 0 841.9 1190.6;" xml:space="preserve">
<style type="text/css">
	.st0{display:none;}
	.st1{display:inline;fill:#FFFFFF;stroke:#FF552E;stroke-width:8;stroke-miterlimit:10;}
	.st2{display:inline;fill:#020202;}
	.st3{display:inline;fill:#F8B182;}
	.st4{display:inline;fill:none;stroke:#EFEFEF;stroke-width:1.5;stroke-miterlimit:10;}
	.st5{fill:#4166F5;}
	.st6{fill:#3467F5;}
	.st7{fill:none;stroke:#F0F0F0;stroke-width:1.5;stroke-miterlimit:10;}
	.st8{fill:none;}
	.st9{fill:#FFFFFF;}
	.st10{font-family:'PTSans-Caption';}
	.st11{font-size:19px;}
	.st12{font-size:9px;}
	.st13{fill:none;stroke:#FFFFFF;stroke-width:1.5;stroke-miterlimit:10;}
	.st14{fill:none;stroke:#F1F1F1;stroke-miterlimit:10;}
	.st15{fill:#EDEDED;}
	.st16{fill:none;stroke:#F0F0F0;stroke-miterlimit:10;}
	.st17{fill:#F0F0F0;}
	.st18{font-size:10.4297px;}
	.st19{clip-path:url(#SVGID_00000121997350890015762420000015418264836277031813_);}
</style>
<g id="Capa_1" class="st0">
	<path class="st1" d="M350.5,60.5c-125.6-5.4-216.6,67.5-222,140c-4.3,58.4,46.5,120.7,105,142c83,30.3,123.6-43.1,257-40
		c34,0.8,145.8,3.3,210,85c7.5,9.6,47.8,62.7,42,133c-9.6,116.4-137.7,182.5-160,194c-136.3,70.4-214.9,0.5-303,73
		c-56.8,46.7-98.2,136.6-71,215c33,95.4,148.4,119.2,158,121c56.4,10.7,103-3.6,125-12"/>
	
		<image style="display:inline;overflow:visible;opacity:0.6;" width="682" height="1552" xlink:href="../Desktop/Screen Shot 2022-11-13 at 12.33.55.png"  transform="matrix(0.6218 0 0 0.6218 1077.9998 6)">
	</image>
</g>
<g id="Capa_4" class="st0">
	
		<image style="display:inline;overflow:visible;opacity:0.6;" width="588" height="1236" xlink:href="../Desktop/Screen Shot 2022-11-13 at 13.01.34.png"  transform="matrix(0.7212 0 0 0.6986 1070 579)">
	</image>
</g>
<g id="Capa_5" class="st0">
	<rect x="-1" y="-1" class="st2" width="843" height="1193"/>
</g>
<g id="Capa_7">
</g>
<g id="Capa_3" class="st0">
	<rect x="1302" y="270" class="st3" width="77" height="12"/>
	<rect x="1087" y="224" class="st3" width="180" height="140"/>
	<rect x="1179" y="449" class="st3" width="86" height="12"/>
	<rect x="1309" y="417" class="st3" width="180" height="117"/>
	<rect x="1361" y="617" class="st3" width="74" height="12"/>
	<rect x="1103" y="726" class="st3" width="159" height="12"/>
	<rect x="1166" y="989" class="st3" width="94" height="12"/>
	<rect x="1206" y="975" class="st3" width="54" height="12"/>
</g>
<g id="Capa_2">
</g>
<g id="Capa_9" class="st0">
	<line class="st4" x1="397.9" y1="219.2" x2="398.7" y2="1161.3"/>
</g>
<g id="Capa_6">
</g>
<g id="Capa_8">
	<path class="st5" d="M557.1,653H275.9c-8,0-14.4-6.5-14.4-14.4v-79.2c0-8,6.5-14.4,14.4-14.4h281.2c8,0,14.4,6.5,14.4,14.4v79.2
		C571.5,646.5,565.1,653,557.1,653z"/>
	<rect x="429.2" y="282.7" class="st5" width="77" height="12"/>
	<rect x="299.9" y="445.7" class="st5" width="86" height="12"/>
	<rect x="487.1" y="613.9" class="st6" width="74" height="12"/>
	<rect x="226.9" y="722.7" class="st5" width="159" height="12"/>
	<rect x="291.9" y="995.7" class="st5" width="94" height="12"/>
	<rect x="331.9" y="981.7" class="st5" width="54" height="12"/>
	<line class="st7" x1="407.1" y1="185.7" x2="407.1" y2="1108.7"/>
	<rect x="430.2" y="248" class="st8" width="60" height="27.7"/>
	<text transform="matrix(1 0 0 1 430.2094 261.3008)" class="st9 st10 st11">2012</text>
	<rect x="430.9" y="285.4" class="st8" width="110.3" height="26.3"/>
	<text transform="matrix(1 0 0 1 430.9399 291.7237)"><tspan x="0" y="0" class="st9 st10 st12">Lanzan con éxito </tspan><tspan x="0" y="14" class="st9 st10 st12">cápsula New Shepard</tspan></text>
	<rect x="343.9" y="412.1" class="st8" width="60" height="27.7"/>
	<text transform="matrix(1 0 0 1 343.9339 425.442)" class="st9 st10 st11">2015</text>
	<rect x="223.9" y="448.6" class="st8" width="161" height="57.1"/>
	<text transform="matrix(1 0 0 1 240.0315 454.8911)"><tspan x="0" y="0" class="st9 st10 st12">NS realiza un histórico aterrizaje </tspan><tspan x="-8.1" y="14" class="st9 st10 st12">vertical con un cohete reutilizable </tspan><tspan x="44.7" y="28" class="st9 st10 st12">en un vuelo de prueba</tspan></text>
	<rect x="430.8" y="577.6" class="st8" width="60" height="27.7"/>
	<text transform="matrix(1 0 0 1 430.8246 590.8777)" class="st9 st10 st11">2018</text>
	<rect x="429" y="602.6" class="st8" width="132" height="44.3"/>
	<text transform="matrix(1 0 0 1 429.0298 608.8873)"><tspan x="0" y="0" class="st9 st10 st12">Blue Origin anuncia que </tspan><tspan x="0" y="14" class="st9 st10 st12">comenzará a vender  boletos </tspan><tspan x="0" y="28" class="st9 st10 st12">al público en 2019</tspan></text>
	<rect x="340.5" y="686.2" class="st8" width="60" height="27.7"/>
	<text transform="matrix(1 0 0 1 340.541 699.524)" class="st9 st10 st11">2019</text>
	<line class="st13" x1="406.1" y1="582.9" x2="361.1" y2="582.9"/>
	<line class="st13" x1="361.1" y1="579.9" x2="361.1" y2="584.9"/>
	<circle class="st5" cx="407.6" cy="582.4" r="2.5"/>
	<circle class="st14" cx="409.1" cy="580.9" r="2.5"/>
	<rect x="222.7" y="711.2" class="st8" width="161" height="57.1"/>
	<text transform="matrix(1 0 0 1 224.7808 717.4531)"><tspan x="0" y="0" class="st15 st10 st12">NS completa vuelo número 12, pero </tspan><tspan x="5.2" y="14" class="st15 st10 st12">aún no logra transportar pasajeros</tspan></text>
	<rect x="431.3" y="789" class="st8" width="60" height="27.7"/>
	<text transform="matrix(1 0 0 1 431.2722 802.307)" class="st9 st10 st11">2020</text>
	<rect x="430" y="826.6" class="st8" width="112.1" height="44.3"/>
	<text transform="matrix(1 0 0 1 430.014 832.8871)"><tspan x="0" y="0" class="st9 st10 st12">NS en su vuelo prueba la </tspan><tspan x="0" y="14" class="st9 st10 st12">tecnología de aterrizaje </tspan><tspan x="0" y="28" class="st9 st10 st12">lunar para la NASA</tspan></text>
	<rect x="342.9" y="945.5" class="st8" width="60" height="27.7"/>
	<text transform="matrix(1 0 0 1 342.9178 958.7893)" class="st9 st10 st11">2021</text>
	<rect x="224" y="970.4" class="st8" width="161" height="57.1"/>
	<text transform="matrix(1 0 0 1 239.3384 976.6714)"><tspan x="0" y="0" class="st9 st10 st12">Blue Origin hace historia cuando </tspan><tspan x="-12.7" y="14" class="st9 st10 st12">New Shepard completa con éxito el </tspan><tspan x="0" y="28" class="st9 st10 st12">vuelo con 4 ciudadanos privados</tspan></text>
	<line class="st7" x1="406.9" y1="794.7" x2="386.9" y2="794.7"/>
	<circle class="st5" cx="408.7" cy="795.2" r="2.5"/>
	<circle class="st16" cx="410.2" cy="793.7" r="2.5"/>
	<line class="st7" x1="386.9" y1="792.7" x2="386.9" y2="797.7"/>
	<circle class="st5" cx="407.6" cy="417.4" r="2.5"/>
	<circle class="st7" cx="409.1" cy="415.9" r="2.5"/>
	<circle class="st5" cx="407.7" cy="255.2" r="2.5"/>
	<circle class="st7" cx="409.2" cy="253.7" r="2.5"/>
	<line class="st7" x1="406.2" y1="254.7" x2="386.2" y2="254.7"/>
	<line class="st7" x1="386.2" y1="251.7" x2="386.2" y2="256.7"/>
	
		<image style="overflow:visible;" width="864" height="439" xlink:href="B43BE736DEE9DC2E.png"  transform="matrix(0.122 0 0 0.122 266.8745 784.7261)">
	</image>
	<line class="st7" x1="411.2" y1="415.7" x2="441.2" y2="415.7"/>
	<line class="st13" x1="441.2" y1="413.7" x2="441.2" y2="418.7"/>
	<ellipse class="st17" cx="323.4" cy="598.2" rx="44.2" ry="44.5"/>
	<text transform="matrix(0.7072 0.707 -0.707 0.7072 296.4665 577.0865)" class="st6 st10 st18">FLY TO SPACE</text>
	<ellipse class="st5" cx="500.7" cy="980.1" rx="61.1" ry="59.2"/>
	<g>
		<defs>
			<ellipse id="SVGID_1_" cx="490.8" cy="432.7" rx="61.5" ry="62"/>
		</defs>
		<clipPath id="SVGID_00000050651173828649831090000013528738267157268877_">
			<use xlink:href="#SVGID_1_"  style="overflow:visible;"/>
		</clipPath>
		
			<g transform="matrix(1 0 0 1 -3.051758e-05 -3.051758e-05)" style="clip-path:url(#SVGID_00000050651173828649831090000013528738267157268877_);">
			
				<image style="overflow:visible;" width="376" height="376" xlink:href="../Desktop/Screen Shot 2022-11-13 at 13.32.51.png"  transform="matrix(0.3484 0 0 0.3484 428.2336 365.7266)">
			</image>
		</g>
	</g>
	<g>
		<defs>
			<ellipse id="SVGID_00000015344993249640295340000003658349530388046470_" cx="329.4" cy="286.8" rx="60.9" ry="61.3"/>
		</defs>
		<clipPath id="SVGID_00000088844554407348206560000010736312508763018903_">
			<use xlink:href="#SVGID_00000015344993249640295340000003658349530388046470_"  style="overflow:visible;"/>
		</clipPath>
		<g style="clip-path:url(#SVGID_00000088844554407348206560000010736312508763018903_);">
			
				<image style="overflow:visible;" width="986" height="990" xlink:href="B43BE736DEE9DC2A.png"  transform="matrix(0.1316 0 0 0.1316 261.2338 225.7262)">
			</image>
		</g>
	</g>
	<g>
		<defs>
			<ellipse id="SVGID_00000072256424687094324410000018107308126661052600_" cx="491.4" cy="978.6" rx="61.8" ry="62.3"/>
		</defs>
		<clipPath id="SVGID_00000152972963972654612790000005261575591273842822_">
			<use xlink:href="#SVGID_00000072256424687094324410000018107308126661052600_"  style="overflow:visible;"/>
		</clipPath>
		
			<g id="_x33_nyp6J_00000047055341893601556300000000308478392489129116_" style="clip-path:url(#SVGID_00000152972963972654612790000005261575591273842822_);">
			
				<image style="overflow:visible;" width="768" height="1024" id="_x33_nyp6J_00000023999280971869604500000001184123617394293951_" xlink:href="B43BE736DEE9DC36.jpg"  transform="matrix(0.1618 0 0 0.1618 430.2338 916.7261)">
			</image>
		</g>
	</g>
	<circle class="st5" cx="407.2" cy="951.7" r="2.5"/>
	<circle class="st7" cx="408.7" cy="950.2" r="2.5"/>
	<line class="st7" x1="410.9" y1="950" x2="436.9" y2="950"/>
</g>
</svg>
