<?xml version="1.0" encoding="utf-8"?>
<!-- Generator: Adobe Illustrator 27.0.0, SVG Export Plug-In . SVG Version: 6.00 Build 0)  -->
<svg version="1.1" xmlns="http://www.w3.org/2000/svg" xmlns:xlink="http://www.w3.org/1999/xlink" x="0px" y="0px"
	 viewBox="0 0 841.9 1190.6" style="enable-background:new 0 0 841.9 1190.6;" xml:space="preserve">
<style type="text/css">
	.st0{fill:#3543E0;stroke:#3543E0;stroke-miterlimit:10;}
	.st1{fill:none;stroke:#FFFFFF;stroke-width:1.5;stroke-miterlimit:10;}
	.st2{fill:none;}
	.st3{fill:#FFFFFF;}
	.st4{font-family:'PTSans-Caption';}
	.st5{font-size:12px;}
	.st6{fill:#FFFFFF;stroke:#FFFFFF;stroke-width:1.5;stroke-miterlimit:10;}
	.st7{font-size:14px;}
	.st8{fill:#E4E9F2;}
</style>
<g id="Capa_1">
	
		<image style="overflow:visible;" width="541" height="3713" xlink:href="unnamed.png"  transform="matrix(0.2833 0 0 0.2833 386.8361 62.4165)">
	</image>
	<circle class="st0" cx="574.6" cy="536.2" r="3.4"/>
	<circle class="st0" cx="557.3" cy="913.8" r="3.4"/>
	<circle class="st0" cx="557.3" cy="1071.2" r="3.4"/>
	<polyline class="st1" points="373.7,62.4 355.3,62.4 355.3,1114.1 373.7,1114.1 	"/>
	<rect x="321.7" y="880.2" class="st2" width="40.5" height="32.7"/>
	<text transform="matrix(1 0 0 1 321.7024 888.6475)" class="st3 st4 st5">95 m</text>
	<polyline class="st1" points="510.8,61.4 523.4,61.4 523.5,295.7 510.8,295.7 	"/>
	<rect x="532.6" y="108.1" class="st2" width="128.8" height="89.3"/>
	<text transform="matrix(1 0 0 1 532.57 116.4926)"><tspan x="0" y="0" class="st3 st4 st5">Más del doble del </tspan><tspan x="0" y="14.4" class="st3 st4 st5">volumen de carga </tspan><tspan x="0" y="28.8" class="st3 st4 st5">que caulquier cohete </tspan><tspan x="0" y="43.2" class="st3 st4 st5">de lanzamiento</tspan></text>
	<line class="st6" x1="466.7" y1="535.4" x2="573.4" y2="535.4"/>
	<rect x="540.1" y="550.6" class="st2" width="95.7" height="89.3"/>
	<text transform="matrix(1 0 0 1 540.0759 559.0188)"><tspan x="0" y="0" class="st3 st4 st5">Cuatro aletas </tspan><tspan x="0" y="14.4" class="st3 st4 st5">como superficie </tspan><tspan x="0" y="28.8" class="st3 st4 st5">de control </tspan><tspan x="0" y="43.2" class="st3 st4 st5">aerodinámico</tspan></text>
	<line class="st6" x1="507.6" y1="912.9" x2="555.4" y2="912.9"/>
	<rect x="532.8" y="923.7" class="st2" width="121.4" height="74.8"/>
	<text transform="matrix(1 0 0 1 532.7722 932.122)"><tspan x="0" y="0" class="st3 st4 st5">Dos tracas ayudan a </tspan><tspan x="0" y="14.4" class="st3 st4 st5">la primera etapa </tspan><tspan x="0" y="28.8" class="st3 st4 st5">que será reutilizada</tspan></text>
	<line class="st6" x1="507.6" y1="1071" x2="555.4" y2="1071"/>
	<rect x="553.2" y="1076.7" class="st2" width="100.9" height="52.4"/>
	<text transform="matrix(1 0 0 1 553.2038 1085.0829)"><tspan x="0" y="0" class="st3 st4 st5">las seis patas </tspan><tspan x="0" y="14.4" class="st3 st4 st5">aseguran el </tspan><tspan x="0" y="28.8" class="st3 st4 st5">aterrizaje</tspan></text>
	<circle class="st1" cx="558.8" cy="912.9" r="3.4"/>
	<circle class="st1" cx="576.9" cy="535.4" r="3.4"/>
	<circle class="st1" cx="558.8" cy="1071.2" r="3.4"/>
	<polyline class="st1" points="203.5,837.4 186.4,837.4 186.4,1115 203.5,1115 	"/>
	<rect x="157.9" y="880.2" class="st2" width="40.5" height="32.7"/>
	<text transform="matrix(1 0 0 1 157.8529 888.6475)" class="st3 st4 st5">18 m</text>
	<rect x="212.2" y="1133.2" class="st2" width="126.2" height="33.4"/>
	<text transform="matrix(1 0 0 1 212.2227 1143.0223)" class="st3 st4 st7">New Shepard</text>
	<rect x="427.6" y="1133.2" class="st2" width="126.2" height="33.4"/>
	<text transform="matrix(1 0 0 1 427.6255 1143.0223)" class="st3 st4 st7">New Glenn</text>
</g>
<g id="Capa_2">
	<path class="st8" d="M229.1,1096c0-0.2,0-0.4,0-0.6c0-0.2,0.1-0.4,0-0.6c-0.1,0-0.2,0-0.3,0c0,0.2,0,0.5,0,0.7c0,0.3,0,0.7,0,1
		C228.9,1096.3,229,1096.2,229.1,1096z M293,1067.3c0,0.8,0,1.5,0,2.3c0,0.1,0,0.2-0.1,0.2c0,0,0,0,0,0.1c-0.2,0.2-0.5,0.4-0.7,0.5
		c0,0,0,0,0,0c0,0.1,0,0.3,0.1,0.4c0,0.2,0,0.4,0,0.6c0.3,0.1,0.5,0.5,0.6,0.6c0.2,0.4,0.3,1,0,1.4c0,0.1-0.1,0.1-0.2,0.2
		c0.1,0.7,0.2,1.3,0.2,2c0.1,1,0.1,1.9,0,2.9c0,1,0,2.1,0.1,3.1c0,1.7,0.1,3.4,0.1,5.1c0,2.2-0.1,4.3-0.1,6.5c0,1.5,0,2.9,0,4.4
		c-0.1,2.1-0.1,4.3-0.1,6.4c0,0.1,0,0.2,0,0.4c0.1,0.5,0.1,1.2,0.1,1.3c0,0.2,0,1.2-0.1,1.6c0,0.1,0,0.2,0,0.2
		c-0.1,0.3-0.4,0.5-0.7,0.5c0.2,1.7,0,3.4,0,5.1c0,1.2,0.1,2.3,0.1,3.4c0,0.2,0,0.3,0,0.5c0,0.1,0,0.3-0.2,0.3c0,0,0,0,0,0
		c0,0,0,0,0,0c-0.3,0.2-0.7,0.2-1.1,0.2c-0.5,0-0.9-0.1-1.4-0.2c-0.1,0-0.2-0.1-0.2-0.1c-0.1-0.1-0.1-0.2,0-0.3c0-0.1,0-0.2,0-0.3
		c0,0,0,0,0,0c0,0,0,0,0,0c0-0.3,0-0.7,0-1c0-0.4-0.1-0.8,0-1.2c0,0,0-0.1,0-0.1c-0.1,0-0.1,0-0.2,0c-0.2-0.1-0.5-0.2-0.4-0.4
		c0,0,0,0,0-0.1c-0.1-1.5,0-3.1,0-4.6c0-0.6,0-1.2,0-1.8c0-0.2,0-0.5,0.1-0.8c-0.4-0.1-0.8-0.4-1.2-0.6c-0.2-0.1-0.5-0.2-0.7-0.4
		c0,0-0.1-0.1,0-0.2c0,0,0,0,0,0c-0.1-0.3,0-0.6,0-0.9c0-0.9,0-1.7,0.1-2.6c0-0.8,0-1.6,0-2.4c0-0.5,0.1-1,0.1-1.6c0,0,0,0-0.1,0
		c-0.8-0.6-1.8-2.1-1.9-3.1c0-0.1-0.1-0.3,0-0.4c0,0,0.1-0.1,0.1-0.1c0,0,0,0,0.1,0c0.2-0.1,0.4-0.1,0.6-0.1c0.3,0,0.6,0,0.9,0
		c0.1,0,0.1,0,0.2,0c0-0.2,0-0.4,0-0.5c0.1-0.9,0-1.9,0-2.8c0-0.6,0-1.2,0-1.7c0-0.2,0-0.5,0-0.7c0,0-0.1,0-0.1-0.1
		c-0.4-0.3-0.7-0.6-1.1-0.9c-0.5-0.4-0.9-0.8-1.4-1.2c-0.5-0.4-1-0.8-1.4-1.2c-0.5-0.4-1-0.8-1.4-1.2c-0.5-0.4-0.9-0.8-1.4-1.2
		c-0.1-0.1-0.2-0.2-0.2-0.2c0,0.2,0,0.4-0.1,0.6c-0.2,0.8-0.4,1.5-0.8,2.2c-0.1,0.3-0.3,0.6-0.4,0.9c-0.1,0.3-0.2,0.6-0.4,0.9
		c-0.3,0.4-0.5,0.9-0.9,1.2c-0.2,0.3-0.4,0.5-0.6,0.7c-0.7,0.7-1.5,1.2-2.3,1.8c-1.4,0.9-3,1.2-4.5,1.4c-0.8,0.1-1.7,0.2-2.5,0.2
		c-1,0-1.9,0.1-2.9,0.1c-0.7,0-1.4,0-2.1-0.1c0,0,0,0,0,0c-0.6,0-1.1,0.1-1.7,0.1c-0.1,0-0.2,0-0.2,0c0.5,0.8,0.8,1.7,1.1,2.6
		c0.4,1.2,0.7,2.3,0.9,3.5c0.1,0.6,0.2,1.1,0.3,1.7c0,0.2,0.1,0.4,0,0.5c-0.1,0.1-0.2,0.1-0.2,0c0,0,0,0,0,0
		c-0.2,0.1-0.6,0.1-0.7,0.1c-0.7,0.1-1.4,0.1-2.1,0.1c-1.2,0-2.4,0-3.6,0c-1.1,0-2.2,0-3.2-0.2c-0.1,0-0.1,0-0.2-0.1c0,0,0,0,0,0
		c-0.2-0.1-0.2-0.3-0.1-0.4c0.1-0.5,0.2-0.9,0.3-1.4c0.4-1.5,0.8-3.1,1.3-4.6c0.1-0.4,0.3-0.7,0.4-1.1c0.1-0.4,0.3-0.7,0.5-1
		c-0.2,0-0.3,0-0.5,0c-0.2,0-0.4,0-0.5,0c-1.3,0-2.5-0.2-3.8-0.2c-1.4-0.1-2.7-0.1-4.1-0.2c-1.4-0.1-2.7-0.3-4-0.7
		c-0.9-0.3-1.8-0.6-2.6-1.2c-0.8-0.6-1.6-1.3-2.2-2.2c-0.5-0.7-0.8-1.5-1-2.3c-0.3-1-0.5-2-0.6-3.1c-0.2,0.2-0.4,0.3-0.6,0.5
		c-1.4,1.1-2.7,2.3-4.1,3.4c-0.5,0.5-1.1,0.9-1.6,1.3c-0.1,0.1-0.3,0.2-0.4,0.3c0,0,0,0,0,0c0,0,0,0.1,0,0.1c0,0.2,0,0.5,0,0.7
		c0,0.3,0,0.6,0,0.9c0,0.6,0,1.3,0,1.9c0,0.6,0,1.3,0,1.9c0,0.3,0,0.5,0,0.8c0,0,0.1,0,0.1,0c0.1,0,0.3-0.1,0.4,0
		c0.3,0.2,0.3,0.6,0.3,0.9c0,0.3,0,0.5,0,0.8c-0.1,0.3-0.3,0.5-0.5,0.7c-0.1,0.1-0.1,0.3-0.3,0.3c0,0.1,0,0.2,0,0.4
		c0,0.6,0,1.3,0,1.9c0,0.6,0,1.3,0,1.9c0,0.3,0,0.5,0,0.8c0,0,0,0,0,0c0,0.2,0,0.4,0,0.6c0,0.1,0,0.2,0,0.3c0,0.1,0,0.1,0,0.2
		c0,0.1,0,0.1-0.1,0.2c0,0,0,0,0,0c-0.1,0.2-0.4,0.3-0.6,0.4c0,0.1,0,0.3,0,0.4c0,0.4,0,0.8,0,1.2c0,0.1,0,0.4-0.1,0.5
		c0,0,0,0.1-0.1,0.1c-0.2,0.2-0.4,0.3-0.6,0.4c-0.2,0.2-0.5,0.3-0.8,0.4c0,0-0.1,0-0.1,0c0,0,0,0,0,0c0,0,0,0,0,0c0,0.1,0,0.2,0,0.3
		c0,0.1,0,0.2,0,0.3c0,0.2,0,0.5,0,0.7c0,0.2,0,0.5,0,0.7c0,0.1,0,0.1,0,0.1c0,0.1,0,0.2,0,0.2c0,0.1,0,0.1,0,0.2c0,0.1,0,0.1,0,0.2
		c0,0.1,0,0.1,0,0.2c0,0,0,0.1,0,0.1c0,0,0,0,0,0.1c0,0,0,0.1,0,0.1c0,0,0,0.1,0,0.1v0c0,0,0,0.1,0,0.1c0,0,0,0,0,0.1
		c0,0,0,0.1,0,0.1c0,0.3,0,0.6,0,0.9c0,0,0,0,0,0.1c0,0.3,0,0.6,0,0.9c0,0,0,0,0,0c0,0.2,0,0.4,0,0.6c0,0.2,0,0.5,0,0.7
		c0,0.1,0,0.3,0,0.4c0,0.1,0,0.2,0,0.4c0,0,0,0.1-0.1,0.1c0,0,0,0,0,0c0,0.1-0.1,0.1-0.2,0.1c-0.1,0-0.3,0-0.4,0
		c0,0.4,0,0.9-0.1,1.3c0,0.3,0,0.6-0.1,0.9c0,0.1,0,0.5-0.1,0.7c0,0.1-0.2,0.1-0.3,0.1c-0.3,0.1-0.7,0.1-1,0.1c-0.2,0-1-0.1-1.1-0.3
		c0,0-0.1-0.1-0.1-0.1c0,0,0,0,0-0.1c0-0.1,0-0.2,0-0.3c0-0.3,0-0.6,0-0.9c0-0.7,0-1.4,0-2.1c0-0.7,0-1.4,0-2.1c0-0.3,0-0.5,0-0.8
		c0-0.4,0-0.8,0-1.3c0-0.3,0-0.5,0-0.8c0-0.1,0-0.3,0-0.4c0-0.1,0-0.1,0-0.2c0,0,0-0.1,0-0.1c-0.1,0-0.3-0.1-0.3-0.2c0,0,0,0,0,0
		c0,0,0-0.1,0-0.1c0-0.1,0-0.1,0-0.2c0,0-0.1,0-0.1,0c-0.1-0.1-0.1-0.3-0.1-0.4c0-0.4,0-0.8,0-1.2c0-1.1,0-2.2,0-3.3
		c-0.1-4,0-7.9-0.2-11.9c-0.1-3-0.2-6.1-0.2-9.1c-0.1-2.9-0.3-5.8-0.1-8.6c0.1-0.5,0.1-1,0.5-1.4c0.1-0.1,0.2-0.2,0.3-0.2
		c0,0,0,0,0,0c0,0,0,0,0,0c0-0.3,0-0.5,0-0.8c0-0.2,0-0.3,0.1-0.5c-0.3-0.1-0.6-0.2-0.8-0.3c0,0-0.1-0.1-0.1-0.1c0,0,0,0-0.1,0
		c-0.1,0-0.1-0.1-0.1-0.2c0,0,0-0.1,0-0.1c0-0.1,0-0.2,0-0.2c0-0.2,0-0.4,0-0.5c0-0.4,0-0.7,0-1.1c0-0.7,0-1.5,0-2.2
		c0-0.7,0-1.4,0-2.2c0-0.4,0-0.7,0-1.1c0-0.4,0-0.7,0-1.1c0-0.1,0-0.2,0-0.3c0,0,0-0.1,0-0.1c0,0,0-0.1,0-0.1c0-0.1,0.1-0.1,0.1-0.1
		c0,0,0,0,0.1,0c0,0,0,0,0.1,0c0,0,0.1-0.1,0.1-0.1c0.1-0.1,0.2-0.1,0.3-0.2c0.2-0.1,0.5-0.3,0.7-0.4c0.5-0.3,1-0.6,1.4-0.9
		c0.5-0.3,1-0.6,1.5-0.9c0.5-0.3,1-0.6,1.4-0.9c0.5-0.3,1-0.6,1.5-0.9l0,0c0,0,0,0,0,0c0.5-0.3,1-0.6,1.5-0.9
		c0.2-0.1,0.5-0.3,0.7-0.4c0.1-0.1,0.2-0.1,0.3-0.2c0.1-0.1,0.3-0.2,0.4-0.2c0,0,0.1-0.1,0.1-0.1c0.1-0.1,0.2-0.1,0.2-0.1
		c0,0,0.1,0,0.1-0.1l0,0c0,0,0.1,0,0.1-0.1c0,0,0,0,0,0c0,0,0,0,0,0c0,0,0,0,0,0c0,0,0,0,0,0c0,0,0,0,0,0v0c0,0,0,0,0,0c0,0,0,0,0,0
		c0,0,0.1,0,0.1,0c0,0,0,0,0,0c0,0,0,0,0,0c0,0,0,0,0,0c0,0,0,0,0,0c0,0,0,0,0,0c0,0,0,0,0,0c0,0,0,0,0,0h0c0,0,0,0,0,0c0,0,0,0,0,0
		c0,0,0,0,0,0c0,0,0,0,0,0c0,0,0,0,0,0c0,0,0,0,0,0c0,0,0,0,0,0h0c0,0,0,0,0,0c0,0,0,0,0,0c0,0,0,0,0,0l0,0c0,0,0,0,0,0c0,0,0,0,0,0
		c0,0,0,0,0,0c0,0,0,0,0,0c0,0,0,0,0,0c0,0,0.1,0,0.1,0c0.2-0.1,0.5-0.3,0.7-0.4c0.2-0.1,0.5-0.3,0.7-0.4c0.1-0.1,0.2-0.1,0.3-0.2
		c0.1,0,0.1-0.1,0.2-0.1c0,0,0.1,0,0.2,0c0,0,0,0,0,0c0,0,0,0,0,0c0-0.1,0-0.2,0-0.4c0-0.8,0-1.7,0-2.5c0-2.5,0-4.9,0.1-7.4
		c0-1.8-0.1-3.7-0.1-5.5c0-1.6,0.1-3.2,0-4.8c0-1.9,0-3.7,0-5.6c0-2.1,0-4.3,0-6.4c0.1-2.5,0.1-5.1,0.1-7.6c0-4-0.1-8.1-0.1-12.1
		c0-1.4-0.1-2.9-0.1-4.3c0-1.1,0-2.3,0-3.4c0-2.8-0.1-5.5,0.1-8.3c0,0,0,0,0,0c-0.1,0-0.1-0.1-0.1-0.2c0-0.8,0.1-1.5,0.1-2.3
		c0.1-1.8,0.1-3.6,0.2-5.4c0.1-2.3,0-4.6,0-7c0-1.3,0-2.6,0-3.9c0-2.4-0.1-4.8-0.1-7.1c0-1.2-0.1-2.4-0.1-3.6c0-3-0.1-5.9-0.1-8.9
		c0-3.1,0.1-6.2,0.3-9.3c0-0.7,0.1-1.4,0.1-2c0-0.8,0-1.7,0-2.5c-0.1-3.4-0.2-6.7-0.4-10.1c-0.1-2-0.2-4-0.3-6
		c-0.1-1.8,0-3.5,0.1-5.3c0.1-1.2,0-2.4,0.1-3.7c0-0.6,0.1-1.1,0.2-1.7c0-0.5,0.1-0.9,0.3-1.4c0.2-0.6,0.5-1.2,1-1.6
		c0,0,0.1-0.1,0.1-0.1c-0.5-1.1-0.7-1.7-0.6-3c0-0.4,0-0.7,0-1.1c0-0.4,0-0.9,0.1-1.3c0,0,0,0,0,0c-0.7,0-1.4,0-2,0
		c-0.5,0-1-0.1-1.6-0.2c-0.9-0.1-2-0.2-2.6-1c-0.1-0.1-0.1-0.2-0.1-0.3c0,0-0.1-0.1-0.1-0.1c-0.1-0.4-0.1-0.7-0.1-1.1
		c0-0.9-0.1-1.9-0.1-2.8c0-1.8,0-3.5,0-5.3c0-3-0.4-6-0.1-9.1c0-0.2,0.1-0.3,0.3-0.4c-0.5-0.4-0.3-1.3-0.3-1.8
		c0.1-1,0.2-2.1,0.4-3.1c0.2-1.2,0.4-2.4,0.7-3.6c0.3-1.5,0.7-3,1-4.5c0-0.1,0.1-0.2,0.1-0.4c-0.1-0.1-0.1-0.3,0-0.4
		c0.1-0.3,0.2-0.6,0.3-1c0.2-0.7,0.3-1.5,0.6-2.2c0.4-1.5,0.8-3,1.3-4.4c0.4-1,0.8-2,1.2-3c0.8-1.8,1.6-3.7,2.8-5.3
		c1.5-2,3.1-4,5.1-5.6c0.9-0.7,1.8-1.4,2.7-2.1c1.3-0.8,2.7-1.6,4.1-2.3c1.4-0.6,2.9-1.2,4.4-1.7c0.3-0.1,0.6-0.2,1-0.3
		c0.1,0,0.2,0,0.3-0.1c0,0,0,0,0,0c0,0,0.1,0,0.1-0.1c0.3-0.1,0.5-0.1,0.8-0.2c0.7-0.1,1.4-0.1,2,0c0.2,0,0.5,0.1,0.7,0.1
		c0.7,0.1,1.4,0.3,2,0.5c0.4,0.1,0.9,0.2,1.2,0.4c0.1,0,0.2,0,0.3,0c0.6,0.2,1.1,0.5,1.7,0.7c1.2,0.7,2.4,1.4,3.6,2.1
		c0.7,0.4,1.3,0.9,2,1.4c1.1,0.7,2.3,1.5,3.2,2.5c1.6,1.5,3.2,3.1,4.5,4.9c0.4,0.6,0.9,1.2,1.3,1.8c0.5,0.9,1,1.7,1.5,2.7
		c0.6,1.3,1,2.6,1.4,4c0.2,0.6,0.3,1.1,0.4,1.7c0.1,0.6,0.2,1.1,0.3,1.7c0.3,1.6,0.5,3.3,0.8,4.9c0.2,0.7,0.3,1.4,0.4,2.1
		c0.1,0.6,0.3,1.1,0.4,1.7c0.2,0.9,0.4,1.7,0.6,2.6c0.2,0.5,0.3,1.1,0.4,1.7c0.3,1.2,0.6,2.4,0.6,3.7c0,0.3,0,0.6,0,1
		c0,0.2-0.1,0.5-0.2,0.7c0,0.5,0.1,1.1,0.1,1.6c0.1,1,0.1,1.9,0.2,2.8c0.1,2.7,0.1,5.5,0.1,8.3c0,1.7,0.1,3.5-0.3,5.2
		c-0.1,0.3-0.1,0.7-0.4,1c0,0.1-0.1,0.1-0.2,0.2c-0.7,0.6-2.9,0.8-3.8,0.8c-0.2,0-0.5,0-0.7,0c-0.1,0-0.2,0-0.3,0
		c-0.2,0-0.9,0-1.3-0.1c0,0.2,0,0.5,0,0.7c-0.1,0.4,0,0.9-0.1,1.3c0,0.3-0.1,0.6-0.1,0.9c0,0.1,0,0.2,0,0.3c0,0.1-0.1,0.3,0,0.4
		c0.2,0.1,0.4,0.3,0.6,0.4c0.4,0.2,0.8,0.4,0.7,0.9c0,0.3-0.2,0.5-0.1,0.8c0.1,0.1,0.2,0.2,0.3,0.4c0.1,0.3,0.1,0.6,0.2,0.9
		c0,0.5,0.2,1.5-0.2,1.8c-0.1,0.2-0.1,0.5-0.3,0.7c-0.1,0.8,0,1.7,0,2.6c0.1,1.1,0.1,2.1,0.1,3.2c0,1.8-0.1,3.5-0.1,5.3
		c0,1.2,0,2.5,0,3.7c0,1.2,0,2.5-0.1,3.7c0,1.4,0,2.7,0,4.1c0,3.4,0.2,6.8,0.2,10.2c0,1.2,0,2.3,0,3.5c0,1.2,0,2.3,0,3.5
		c0,3.4,0.1,6.8,0.1,10.2c0,1,0,1.9,0,2.9c0,0.1,0,0.1-0.1,0.2c0.1,0.3,0.1,0.6,0.1,0.9c0.1,0.9,0.1,1.9,0.1,2.8
		c0,0.9-0.1,1.9-0.1,2.8c0,1.5,0,3,0,4.5c0,0.9,0,1.9-0.1,2.8c0,1.6,0,3.2,0,4.8c0.1,2.1,0.1,4.3,0.1,6.4c0,1,0,2.1,0,3.1
		c0,1.4,0,2.7,0,4.1c0.1,3.1,0.1,6.3,0.1,9.4c0,1.6,0.1,3.2,0.1,4.7c0,2.9,0,5.8-0.1,8.7c0,1.3,0,2.6,0,3.9c0,0.1-0.1,0.2-0.2,0.3
		c0,0.1,0,0.2,0,0.2c0.1,0.9,0.1,1.7,0.1,2.6c-0.1,1-0.1,2.1-0.1,3.1c0,0.6-0.1,1.2,0,1.8c0,1,0,2.1,0,3.1c0,0.7,0,1.3,0,2
		c0,3.8-0.1,7.6,0.1,11.4c0,2.2,0.1,4.4,0.1,6.6c0,1,0.1,1.9,0.1,2.9c0,0.1,0,0.1,0,0.2c0.3,0.1,0.5,0.3,0.7,0.4
		c0.7,0.4,1.3,0.9,2,1.3c0.3,0.2,0.6,0.4,0.9,0.5c0.1,0.1,0.3,0.1,0.4,0.2c1.6,0.8,3.1,1.8,4.7,2.6c0.7,0.3,1.3,0.7,1.9,1.1
		c0.5,0.3,1,0.6,1.4,0.9c0.3,0.2,0.6,0.4,0.8,0.5c0.1,0,0.2,0.1,0.3,0.2c0.1,0.1,0.1,0.2,0.1,0.4c0,0.1,0,0.2,0,0.3
		C293,1063.2,293,1065.2,293,1067.3z"/>
</g>
</svg>
